<mxfile host="app.diagrams.net" agent="Mozilla/5.0 (Windows NT 10.0; Win64; x64) AppleWebKit/537.36 (KHTML, like Gecko) Chrome/134.0.0.0 Safari/537.36 Edg/134.0.0.0" version="26.1.3">
  <diagram name="Страница — 1" id="MXQvTDNEiekCSeKDril9">
    <mxGraphModel dx="1425" dy="2075" grid="1" gridSize="10" guides="1" tooltips="1" connect="1" arrows="1" fold="1" page="1" pageScale="1" pageWidth="827" pageHeight="1169" math="0" shadow="0">
      <root>
        <mxCell id="0" />
        <mxCell id="1" parent="0" />
        <mxCell id="LMiZHLZiGxypcz7NW-JE-44" style="edgeStyle=orthogonalEdgeStyle;rounded=0;orthogonalLoop=1;jettySize=auto;html=1;entryX=0.5;entryY=0;entryDx=0;entryDy=0;" edge="1" parent="1" source="LMiZHLZiGxypcz7NW-JE-46">
          <mxGeometry relative="1" as="geometry">
            <mxPoint x="870" y="780" as="targetPoint" />
          </mxGeometry>
        </mxCell>
        <mxCell id="LMiZHLZiGxypcz7NW-JE-45" value="Запрос на услугу" style="edgeLabel;html=1;align=center;verticalAlign=middle;resizable=0;points=[];" vertex="1" connectable="0" parent="LMiZHLZiGxypcz7NW-JE-44">
          <mxGeometry x="-0.4745" y="-1" relative="1" as="geometry">
            <mxPoint x="-13" y="16" as="offset" />
          </mxGeometry>
        </mxCell>
        <mxCell id="LMiZHLZiGxypcz7NW-JE-46" value="Пользователь" style="ellipse;whiteSpace=wrap;html=1;" vertex="1" parent="1">
          <mxGeometry x="1060" y="680" width="140" height="70" as="geometry" />
        </mxCell>
        <mxCell id="LMiZHLZiGxypcz7NW-JE-47" style="edgeStyle=orthogonalEdgeStyle;rounded=0;orthogonalLoop=1;jettySize=auto;html=1;" edge="1" parent="1">
          <mxGeometry relative="1" as="geometry">
            <mxPoint x="870.0344827586207" y="830" as="sourcePoint" />
            <mxPoint x="870" y="900" as="targetPoint" />
          </mxGeometry>
        </mxCell>
        <mxCell id="LMiZHLZiGxypcz7NW-JE-48" value="Сохранение данных пользователей" style="edgeLabel;html=1;align=center;verticalAlign=middle;resizable=0;points=[];" vertex="1" connectable="0" parent="LMiZHLZiGxypcz7NW-JE-47">
          <mxGeometry x="-0.2857" y="1" relative="1" as="geometry">
            <mxPoint x="99" y="5" as="offset" />
          </mxGeometry>
        </mxCell>
        <mxCell id="LMiZHLZiGxypcz7NW-JE-50" style="edgeStyle=orthogonalEdgeStyle;rounded=0;orthogonalLoop=1;jettySize=auto;html=1;" edge="1" parent="1">
          <mxGeometry relative="1" as="geometry">
            <mxPoint x="870" y="950" as="sourcePoint" />
            <mxPoint x="870.0344827586207" y="990.0000000000002" as="targetPoint" />
          </mxGeometry>
        </mxCell>
        <mxCell id="LMiZHLZiGxypcz7NW-JE-51" value="Данные пользователя" style="edgeLabel;html=1;align=center;verticalAlign=middle;resizable=0;points=[];" vertex="1" connectable="0" parent="LMiZHLZiGxypcz7NW-JE-50">
          <mxGeometry x="-0.3" y="1" relative="1" as="geometry">
            <mxPoint x="69" as="offset" />
          </mxGeometry>
        </mxCell>
        <mxCell id="LMiZHLZiGxypcz7NW-JE-53" style="edgeStyle=orthogonalEdgeStyle;rounded=0;orthogonalLoop=1;jettySize=auto;html=1;entryX=1;entryY=1;entryDx=0;entryDy=0;" edge="1" parent="1" target="LMiZHLZiGxypcz7NW-JE-46">
          <mxGeometry relative="1" as="geometry">
            <Array as="points">
              <mxPoint x="1130" y="990" />
              <mxPoint x="1180" y="990" />
            </Array>
            <mxPoint x="1130.0344827586207" y="1180.0000000000002" as="sourcePoint" />
          </mxGeometry>
        </mxCell>
        <mxCell id="LMiZHLZiGxypcz7NW-JE-54" value="Счет на оплату" style="edgeLabel;html=1;align=center;verticalAlign=middle;resizable=0;points=[];" vertex="1" connectable="0" parent="LMiZHLZiGxypcz7NW-JE-53">
          <mxGeometry x="0.1291" y="-2" relative="1" as="geometry">
            <mxPoint x="49" as="offset" />
          </mxGeometry>
        </mxCell>
        <mxCell id="LMiZHLZiGxypcz7NW-JE-56" style="edgeStyle=orthogonalEdgeStyle;rounded=0;orthogonalLoop=1;jettySize=auto;html=1;entryX=0;entryY=0.5;entryDx=0;entryDy=0;" edge="1" parent="1">
          <mxGeometry relative="1" as="geometry">
            <Array as="points">
              <mxPoint x="870" y="1115" />
              <mxPoint x="950" y="1115" />
              <mxPoint x="950" y="1205" />
            </Array>
            <mxPoint x="870.0344827586207" y="1040.0000000000002" as="sourcePoint" />
            <mxPoint x="1020" y="1205.0000000000002" as="targetPoint" />
          </mxGeometry>
        </mxCell>
        <mxCell id="LMiZHLZiGxypcz7NW-JE-57" value="Информация о тарификации" style="edgeLabel;html=1;align=center;verticalAlign=middle;resizable=0;points=[];" vertex="1" connectable="0" parent="LMiZHLZiGxypcz7NW-JE-56">
          <mxGeometry x="0.0222" y="3" relative="1" as="geometry">
            <mxPoint x="4" y="-22" as="offset" />
          </mxGeometry>
        </mxCell>
        <mxCell id="LMiZHLZiGxypcz7NW-JE-61" style="edgeStyle=orthogonalEdgeStyle;rounded=0;orthogonalLoop=1;jettySize=auto;html=1;entryX=0.5;entryY=0;entryDx=0;entryDy=0;" edge="1" parent="1">
          <mxGeometry relative="1" as="geometry">
            <mxPoint x="440" y="1040" as="sourcePoint" />
            <mxPoint x="440" y="1100" as="targetPoint" />
          </mxGeometry>
        </mxCell>
        <mxCell id="LMiZHLZiGxypcz7NW-JE-62" value="Данные об услугах" style="edgeLabel;html=1;align=center;verticalAlign=middle;resizable=0;points=[];" vertex="1" connectable="0" parent="LMiZHLZiGxypcz7NW-JE-61">
          <mxGeometry x="-0.3333" y="-1" relative="1" as="geometry">
            <mxPoint x="61" as="offset" />
          </mxGeometry>
        </mxCell>
        <mxCell id="LMiZHLZiGxypcz7NW-JE-64" style="edgeStyle=orthogonalEdgeStyle;rounded=0;orthogonalLoop=1;jettySize=auto;html=1;entryX=0.5;entryY=0;entryDx=0;entryDy=0;" edge="1" parent="1" target="LMiZHLZiGxypcz7NW-JE-67">
          <mxGeometry relative="1" as="geometry">
            <mxPoint x="440" y="1150" as="sourcePoint" />
          </mxGeometry>
        </mxCell>
        <mxCell id="LMiZHLZiGxypcz7NW-JE-65" value="Аналитические отчеты" style="edgeLabel;html=1;align=center;verticalAlign=middle;resizable=0;points=[];" vertex="1" connectable="0" parent="LMiZHLZiGxypcz7NW-JE-64">
          <mxGeometry x="-0.08" y="3" relative="1" as="geometry">
            <mxPoint x="67" as="offset" />
          </mxGeometry>
        </mxCell>
        <mxCell id="LMiZHLZiGxypcz7NW-JE-67" value="&amp;nbsp;Администратор" style="ellipse;whiteSpace=wrap;html=1;" vertex="1" parent="1">
          <mxGeometry x="370" y="1200" width="140" height="70" as="geometry" />
        </mxCell>
        <mxCell id="LMiZHLZiGxypcz7NW-JE-68" value="БД Пользователей" style="html=1;dashed=0;whiteSpace=wrap;shape=partialRectangle;right=0;" vertex="1" parent="1">
          <mxGeometry x="800" y="900" width="130" height="50" as="geometry" />
        </mxCell>
        <mxCell id="LMiZHLZiGxypcz7NW-JE-70" value="Обработка запросов пользователей" style="html=1;outlineConnect=0;whiteSpace=wrap;shape=mxgraph.archimate3.application;appType=proc;archiType=rounded;" vertex="1" parent="1">
          <mxGeometry x="795" y="780" width="150" height="52" as="geometry" />
        </mxCell>
        <mxCell id="LMiZHLZiGxypcz7NW-JE-71" value="Выставление счетов" style="html=1;outlineConnect=0;whiteSpace=wrap;shape=mxgraph.archimate3.application;appType=proc;archiType=rounded;" vertex="1" parent="1">
          <mxGeometry x="1020" y="1180" width="150" height="52" as="geometry" />
        </mxCell>
        <mxCell id="LMiZHLZiGxypcz7NW-JE-74" style="edgeStyle=orthogonalEdgeStyle;rounded=0;orthogonalLoop=1;jettySize=auto;html=1;entryX=1;entryY=0.25;entryDx=0;entryDy=0;" edge="1" parent="1" source="LMiZHLZiGxypcz7NW-JE-72" target="LMiZHLZiGxypcz7NW-JE-73">
          <mxGeometry relative="1" as="geometry">
            <Array as="points">
              <mxPoint x="640" y="1014" />
              <mxPoint x="640" y="1001" />
            </Array>
          </mxGeometry>
        </mxCell>
        <mxCell id="LMiZHLZiGxypcz7NW-JE-75" value="Обновление информации об услугах" style="edgeLabel;html=1;align=center;verticalAlign=middle;resizable=0;points=[];" vertex="1" connectable="0" parent="LMiZHLZiGxypcz7NW-JE-74">
          <mxGeometry x="0.0815" y="1" relative="1" as="geometry">
            <mxPoint x="5" y="-14" as="offset" />
          </mxGeometry>
        </mxCell>
        <mxCell id="LMiZHLZiGxypcz7NW-JE-72" value="Управление услугами" style="html=1;outlineConnect=0;whiteSpace=wrap;shape=mxgraph.archimate3.application;appType=proc;archiType=rounded;" vertex="1" parent="1">
          <mxGeometry x="770" y="988" width="150" height="52" as="geometry" />
        </mxCell>
        <mxCell id="LMiZHLZiGxypcz7NW-JE-73" value="БД Услуг" style="html=1;dashed=0;whiteSpace=wrap;shape=partialRectangle;right=0;" vertex="1" parent="1">
          <mxGeometry x="380" y="988" width="130" height="50" as="geometry" />
        </mxCell>
        <mxCell id="LMiZHLZiGxypcz7NW-JE-76" value="Мониторинги отчеты" style="html=1;outlineConnect=0;whiteSpace=wrap;shape=mxgraph.archimate3.application;appType=proc;archiType=rounded;" vertex="1" parent="1">
          <mxGeometry x="365" y="1100" width="150" height="52" as="geometry" />
        </mxCell>
      </root>
    </mxGraphModel>
  </diagram>
</mxfile>
